<svg xmlns="http://www.w3.org/2000/svg" viewBox="0 0 32 32" id="company">
  <path d="M23.16 1H8.84A2.85 2.85 0 0 0 6 3.84V30a1 1 0 0 0 1 1h18a1 1 0 0 0 1-1V3.84A2.85 2.85 0 0 0 23.16 1ZM18 29h-4v-4h4Zm6 0h-4v-5a1 1 0 0 0-1-1h-6a1 1 0 0 0-1 1v5H8V3.84A.84.84 0 0 1 8.84 3h14.32a.84.84 0 0 1 .84.84Z"></path>
  <path d="M20 5a1 1 0 0 0-1 1v2a1 1 0 0 0 2 0V6a1 1 0 0 0-1-1zm0 6a1 1 0 0 0-1 1v2a1 1 0 0 0 2 0v-2a1 1 0 0 0-1-1zm0 6a1 1 0 0 0-1 1v2a1 1 0 0 0 2 0v-2a1 1 0 0 0-1-1zM12 5a1 1 0 0 0-1 1v2a1 1 0 0 0 2 0V6a1 1 0 0 0-1-1zm0 6a1 1 0 0 0-1 1v2a1 1 0 0 0 2 0v-2a1 1 0 0 0-1-1zm0 6a1 1 0 0 0-1 1v2a1 1 0 0 0 2 0v-2a1 1 0 0 0-1-1z"></path>
</svg>
